<svg xmlns="http://www.w3.org/2000/svg" width="21" height="30" viewBox="0 0 21 30">
  <g id="Icon_material-accessible" data-name="Icon material-accessible" transform="translate(-7.5 -3)">
    <path id="Path_6" data-name="Path 6" d="M21,6a3,3,0,1,1-3-3A3,3,0,0,1,21,6Z" fill="#c20051"/>
    <path id="Path_7" data-name="Path 7" d="M28.5,19.5v-3a8.422,8.422,0,0,1-6.1-2.745L20.46,11.61a2.9,2.9,0,0,0-.915-.675c-.015,0-.015-.015-.03-.015H19.5a2.994,2.994,0,0,0-1.785-.39A3.058,3.058,0,0,0,15,13.635V22.5a3.009,3.009,0,0,0,3,3h7.5V33h3V24.75a3.009,3.009,0,0,0-3-3H21V16.575A12.8,12.8,0,0,0,28.5,19.5ZM19.245,27A4.5,4.5,0,1,1,13.5,21.255V18.15A7.5,7.5,0,1,0,22.35,27Z" fill="#c20051"/>
  </g>
</svg>
