<svg xmlns="http://www.w3.org/2000/svg" width="19.429" height="17" viewBox="0 0 19.429 17">
  <path id="Icon_awesome-bath" data-name="Icon awesome-bath" d="M18.518,10.75H3.036V5.286a1.214,1.214,0,0,1,2.239-.65,2.579,2.579,0,0,0,.259,3.151.455.455,0,0,0,.019.623l.429.429a.455.455,0,0,0,.644,0l3.606-3.606a.455.455,0,0,0,0-.644L9.8,4.16a.455.455,0,0,0-.623-.019,2.575,2.575,0,0,0-2.435-.583,3.034,3.034,0,0,0-5.53,1.727V10.75h-.3A.911.911,0,0,0,0,11.661v.607a.911.911,0,0,0,.911.911h.3v1.214a3.633,3.633,0,0,0,1.214,2.715v1.231a.911.911,0,0,0,.911.911h.607a.911.911,0,0,0,.911-.911v-.3h9.714v.3a.911.911,0,0,0,.911.911h.607A.911.911,0,0,0,17,18.339V17.108a3.633,3.633,0,0,0,1.214-2.715V13.179h.3a.911.911,0,0,0,.911-.911v-.607A.911.911,0,0,0,18.518,10.75Z" transform="translate(0 -2.25)" fill="#032d51"/>
</svg>
