<svg xmlns="http://www.w3.org/2000/svg" width="28.5" height="30" viewBox="0 0 28.5 30">
  <path id="Icon_material-child-friendly" data-name="Icon material-child-friendly" d="M19.5,3V15h12A12,12,0,0,0,19.5,3Zm9.48,20.835A11.922,11.922,0,0,0,31.5,16.5H9.66l-1.425-3H3v3H6.33s2.835,6.1,3.18,6.63a5.248,5.248,0,1,0,7.68,5.37h3.12a5.246,5.246,0,1,0,8.67-4.665ZM12,30a2.25,2.25,0,1,1,2.25-2.25A2.247,2.247,0,0,1,12,30Zm13.5,0a2.25,2.25,0,1,1,2.25-2.25A2.247,2.247,0,0,1,25.5,30Z" transform="translate(-3 -3)" fill="#c20051"/>
</svg>
