<svg xmlns="http://www.w3.org/2000/svg" width="17.229" height="19" viewBox="0 0 17.229 19">
  <path id="Icon_simple-email" data-name="Icon simple-email" d="M18.888,8.769a9.8,9.8,0,0,1-.316,2.125,6.15,6.15,0,0,1-.826,1.866,4.36,4.36,0,0,1-1.4,1.326,3.954,3.954,0,0,1-2.046.5,2.966,2.966,0,0,1-1.479-.362,2.533,2.533,0,0,1-1-1.025,3.169,3.169,0,0,1-2.681,1.346A2.726,2.726,0,0,1,6.8,13.293a4.12,4.12,0,0,1-.582-1.458,6.288,6.288,0,0,1-.076-1.9A8.835,8.835,0,0,1,6.72,7.6,6.332,6.332,0,0,1,7.791,5.819,4.53,4.53,0,0,1,9.263,4.681a4.108,4.108,0,0,1,1.79-.4,5.567,5.567,0,0,1,1.071.091,4.383,4.383,0,0,1,.831.249,4.494,4.494,0,0,1,.689.363c.21.135.421.275.632.418l-.52,5.984a1.989,1.989,0,0,0,.015.7.98.98,0,0,0,.214.432.769.769,0,0,0,.347.226,1.287,1.287,0,0,0,1.218-.24,2.6,2.6,0,0,0,.653-.831,5.353,5.353,0,0,0,.439-1.249,8.57,8.57,0,0,0,.192-1.555,9.94,9.94,0,0,0-.245-2.906,5.777,5.777,0,0,0-1.076-2.249,5,5,0,0,0-1.928-1.448,7,7,0,0,0-2.809-.514A6.2,6.2,0,0,0,8,2.36,6.374,6.374,0,0,0,5.888,4.039,8.057,8.057,0,0,0,4.506,6.564a11.38,11.38,0,0,0-.582,3.146,10.462,10.462,0,0,0,.3,3.21,5.8,5.8,0,0,0,1.173,2.3A4.9,4.9,0,0,0,7.382,16.6a7.624,7.624,0,0,0,2.743.458,9.394,9.394,0,0,0,1.8-.194c.3-.059.578-.131.847-.209A6.371,6.371,0,0,0,13.5,16.4l.376,1.693a4.178,4.178,0,0,1-.816.4,7.852,7.852,0,0,1-.964.279A9.407,9.407,0,0,1,10.083,19a10.56,10.56,0,0,1-3.671-.591,6.757,6.757,0,0,1-2.676-1.76,7.39,7.39,0,0,1-1.606-2.905A12.393,12.393,0,0,1,1.68,9.711,12.3,12.3,0,0,1,2.452,5.84,9.579,9.579,0,0,1,4.311,2.765,8.472,8.472,0,0,1,7.148.736,8.88,8.88,0,0,1,10.821,0a9.271,9.271,0,0,1,3.559.638A6.923,6.923,0,0,1,16.95,2.43,7.357,7.357,0,0,1,18.474,5.2,10.591,10.591,0,0,1,18.888,8.769ZM8.691,9.933a4.039,4.039,0,0,0,.209,2,1.074,1.074,0,0,0,1.033.677,1.141,1.141,0,0,0,.354-.065,1.262,1.262,0,0,0,.407-.245,2.173,2.173,0,0,0,.413-.5,3.827,3.827,0,0,0,.38-.843l.406-4.649a2.426,2.426,0,0,0-.632-.083,2.184,2.184,0,0,0-1.051.241,2.08,2.08,0,0,0-.744.708,4.155,4.155,0,0,0-.494,1.164,9.87,9.87,0,0,0-.28,1.591Z" transform="translate(-1.67)" fill="#c20051"/>
</svg>
