<svg id="Icon_ionic-md-fitness" data-name="Icon ionic-md-fitness" xmlns="http://www.w3.org/2000/svg" width="29.25" height="29.25" viewBox="0 0 29.25 29.25">
  <path id="Icon_ionic-md-fitness-2" data-name="Icon ionic-md-fitness" d="M30.537,22.184,32.625,20.1,30.537,18l-5.224,5.224L12.776,10.688,18,5.463,15.912,3.375,13.823,5.463l-2.1-2.088L8.6,6.5,6.5,4.416,4.416,6.5,6.5,8.592,3.375,11.728l2.088,2.088-2.088,2.1L5.463,18l5.224-5.224L23.224,25.313,18,30.537l2.088,2.088,2.088-2.088,2.088,2.088L27.394,29.5l2.088,2.088L31.57,29.5l-2.088-2.088,3.129-3.129Z" transform="translate(-3.375 -3.375)" fill="#032d51"/>
</svg>
