<svg xmlns="http://www.w3.org/2000/svg" width="19.5" height="18" viewBox="0 0 19.5 18">
  <path id="Icon_ionic-md-heart-empty" data-name="Icon ionic-md-heart-empty" d="M17.513,4.5a5.768,5.768,0,0,0-4.388,2.058A5.768,5.768,0,0,0,8.738,4.5,5.3,5.3,0,0,0,3.375,9.9c0,3.727,3.314,6.717,8.334,11.33L13.125,22.5l1.416-1.275c5.02-4.612,8.334-7.6,8.334-11.33A5.3,5.3,0,0,0,17.513,4.5ZM13.725,19.936l-.2.183-.4.366-.4-.366-.2-.183a59.581,59.581,0,0,1-5.752-5.719A6.878,6.878,0,0,1,4.88,9.9a3.9,3.9,0,0,1,1.111-2.78A3.815,3.815,0,0,1,8.738,6a4.3,4.3,0,0,1,3.239,1.523l1.148,1.364,1.148-1.364A4.283,4.283,0,0,1,17.513,6a3.834,3.834,0,0,1,2.752,1.116A3.907,3.907,0,0,1,21.375,9.9a6.914,6.914,0,0,1-1.894,4.322A59.7,59.7,0,0,1,13.725,19.936Z" transform="translate(-3.375 -4.5)" fill="#c20051"/>
</svg>
