<svg xmlns="http://www.w3.org/2000/svg" width="30" height="27" viewBox="0 0 30 27">
  <g id="Icon_material-pool" data-name="Icon material-pool" transform="translate(-3 -4.5)">
    <path id="Path_4" data-name="Path 4" d="M33,31.5a5.738,5.738,0,0,1-3.27-.96A2.816,2.816,0,0,0,28,30a2.694,2.694,0,0,0-1.725.54,6.049,6.049,0,0,1-6.54,0A2.816,2.816,0,0,0,18.015,30a2.694,2.694,0,0,0-1.725.54A5.837,5.837,0,0,1,13,31.5a5.738,5.738,0,0,1-3.27-.96A2.723,2.723,0,0,0,8.01,30a2.723,2.723,0,0,0-1.725.54A5.837,5.837,0,0,1,3,31.5v-3a2.694,2.694,0,0,0,1.725-.54A5.837,5.837,0,0,1,8.01,27a5.738,5.738,0,0,1,3.27.96A2.694,2.694,0,0,0,13,28.5a2.694,2.694,0,0,0,1.725-.54A5.837,5.837,0,0,1,18.015,27a5.738,5.738,0,0,1,3.27.96,2.816,2.816,0,0,0,1.725.54,2.723,2.723,0,0,0,1.725-.54,6.049,6.049,0,0,1,6.54,0A2.694,2.694,0,0,0,33,28.5Zm0-6.75a5.738,5.738,0,0,1-3.27-.96A2.816,2.816,0,0,0,28,23.25a2.694,2.694,0,0,0-1.725.54,6.049,6.049,0,0,1-6.54,0,2.816,2.816,0,0,0-1.725-.54,2.694,2.694,0,0,0-1.725.54,5.738,5.738,0,0,1-3.27.96,5.738,5.738,0,0,1-3.27-.96,2.816,2.816,0,0,0-1.725-.54,2.723,2.723,0,0,0-1.725.54,5.937,5.937,0,0,1-3.3.96v-3a2.694,2.694,0,0,0,1.725-.54,5.738,5.738,0,0,1,3.27-.96,5.738,5.738,0,0,1,3.27.96,2.816,2.816,0,0,0,1.725.54,2.694,2.694,0,0,0,1.725-.54,5.738,5.738,0,0,1,3.27-.96,5.738,5.738,0,0,1,3.27.96,2.816,2.816,0,0,0,1.725.54,2.723,2.723,0,0,0,1.725-.54,6.049,6.049,0,0,1,6.54,0,2.816,2.816,0,0,0,1.725.54v3ZM13.005,18a2.694,2.694,0,0,0,1.725-.54,5.837,5.837,0,0,1,3.285-.96,5.738,5.738,0,0,1,3.27.96A2.816,2.816,0,0,0,23.01,18a2.723,2.723,0,0,0,1.725-.54c.18-.1.39-.225.615-.345L15.72,7.5C13.4,5.175,11.25,4.485,7.5,4.5V8.25a7.381,7.381,0,0,1,6,2.25L15,12l-4.875,4.875a8.208,8.208,0,0,1,1.155.585A2.694,2.694,0,0,0,13.005,18Z" fill="#c20051"/>
    <path id="Path_5" data-name="Path 5" d="M28.5,8.25A3.75,3.75,0,1,1,24.75,4.5,3.75,3.75,0,0,1,28.5,8.25Z" fill="#c20051"/>
  </g>
</svg>
