<svg xmlns="http://www.w3.org/2000/svg" width="9.517" height="19" viewBox="0 0 9.517 19">
  <path id="Icon_open-question-mark" data-name="Icon open-question-mark" d="M4.73,0a4.434,4.434,0,0,0-3.6,1.568A5.824,5.824,0,0,0,0,4.608l1.915.309a3.237,3.237,0,0,1,.594-1.639,2.55,2.55,0,0,1,2.221-.9,2.955,2.955,0,0,1,2.336.807A2.237,2.237,0,0,1,7.6,4.75c0,1.971-.651,2.517-1.609,3.563a7.325,7.325,0,0,0-2.221,5.344v.594H5.687v-.594a4.238,4.238,0,0,1,1.551-3.562A7.336,7.336,0,0,0,9.517,4.75,5.169,5.169,0,0,0,8.388,1.4,4.654,4.654,0,0,0,4.73,0ZM3.772,16.625V19H5.687V16.625Z" fill="#c20051"/>
</svg>
