<svg xmlns="http://www.w3.org/2000/svg" width="29.25" height="27" viewBox="0 0 29.25 27">
  <path id="Icon_ionic-md-wifi" data-name="Icon ionic-md-wifi" d="M18,16.082a2.9,2.9,0,1,0,2.925,2.9A2.919,2.919,0,0,0,18,16.082Zm8.775,2.9a8.775,8.775,0,1,0-13.163,7.528l1.463-2.534a5.711,5.711,0,0,1-2.925-4.995,5.85,5.85,0,0,1,11.7,0,5.711,5.711,0,0,1-2.925,4.995l1.463,2.534A8.715,8.715,0,0,0,26.775,18.977ZM18,4.5A14.594,14.594,0,0,0,3.375,18.977,14.422,14.422,0,0,0,10.688,31.5l1.462-2.534A11.51,11.51,0,0,1,6.3,18.977a11.7,11.7,0,0,1,23.4,0,11.422,11.422,0,0,1-5.85,9.989L25.313,31.5a14.423,14.423,0,0,0,7.313-12.523A14.594,14.594,0,0,0,18,4.5Z" transform="translate(-3.375 -4.5)" fill="#c20051"/>
</svg>
